<svg width="16" height="16" viewBox="0 0 16 16" fill="none" xmlns="http://www.w3.org/2000/svg">
  <path d="M1.29303 1.29308C1.48056 1.10561 1.73487 1.00029 2.00003 1.00029C2.26519 1.00029 2.5195 1.10561 2.70703 1.29308L8.00003 6.58608L13.293 1.29308C13.3853 1.19757 13.4956 1.12139 13.6176 1.06898C13.7396 1.01657 13.8709 0.988985 14.0036 0.987831C14.1364 0.986677 14.2681 1.01198 14.391 1.06226C14.5139 1.11254 14.6255 1.18679 14.7194 1.28069C14.8133 1.37458 14.8876 1.48623 14.9379 1.60913C14.9881 1.73202 15.0134 1.8637 15.0123 1.99648C15.0111 2.12926 14.9835 2.26048 14.9311 2.38249C14.8787 2.50449 14.8025 2.61483 14.707 2.70708L9.41403 8.00008L14.707 13.2931C14.8892 13.4817 14.99 13.7343 14.9877 13.9965C14.9854 14.2587 14.8803 14.5095 14.6948 14.6949C14.5094 14.8803 14.2586 14.9855 13.9964 14.9878C13.7342 14.99 13.4816 14.8892 13.293 14.7071L8.00003 9.41408L2.70703 14.7071C2.51843 14.8892 2.26583 14.99 2.00363 14.9878C1.74143 14.9855 1.49062 14.8803 1.30521 14.6949C1.1198 14.5095 1.01464 14.2587 1.01236 13.9965C1.01008 13.7343 1.11087 13.4817 1.29303 13.2931L6.58603 8.00008L1.29303 2.70708C1.10556 2.51955 1.00024 2.26525 1.00024 2.00008C1.00024 1.73492 1.10556 1.48061 1.29303 1.29308V1.29308Z" fill="#70778F"/>
</svg>
