<svg width="24" height="24" viewBox="0 0 24 24" fill="none" xmlns="http://www.w3.org/2000/svg">
<g clip-path="url(#clip0)">
<path d="M10.1027 10.7723C10.0359 10.7055 9.95652 10.6525 9.86921 10.6163C9.78189 10.5801 9.68831 10.5615 9.5938 10.5615C9.4993 10.5615 9.40572 10.5801 9.3184 10.6163C9.23109 10.6525 9.15176 10.7055 9.08493 10.7723C9.0181 10.8391 8.96509 10.9185 8.92893 11.0058C8.89276 11.0931 8.87415 11.1867 8.87415 11.2812C8.87415 11.3757 8.89276 11.4693 8.92893 11.5566C8.96509 11.6439 9.0181 11.7232 9.08493 11.7901L10.7337 13.4374L9.08493 15.0848C8.94997 15.2198 8.87415 15.4028 8.87415 15.5937C8.87415 15.7845 8.94997 15.9676 9.08493 16.1026C9.21989 16.2375 9.40294 16.3133 9.5938 16.3133C9.78467 16.3133 9.96772 16.2375 10.1027 16.1026L11.7501 14.4537L13.3974 16.1026C13.5324 16.2375 13.7154 16.3133 13.9063 16.3133C14.0972 16.3133 14.2802 16.2375 14.4152 16.1026C14.5501 15.9676 14.626 15.7845 14.626 15.5937C14.626 15.4028 14.5501 15.2198 14.4152 15.0848L12.7664 13.4374L14.4152 11.7901C14.5501 11.6551 14.626 11.472 14.626 11.2812C14.626 11.0903 14.5501 10.9073 14.4152 10.7723C14.2802 10.6373 14.0972 10.5615 13.9063 10.5615C13.7154 10.5615 13.5324 10.6373 13.3974 10.7723L11.7501 12.4211L10.1027 10.7723Z" fill="#DC3545"/>
<path d="M20.375 20.625V6.96875L13.9062 0.5H6C5.2375 0.5 4.50623 0.802901 3.96707 1.34207C3.4279 1.88124 3.125 2.6125 3.125 3.375V20.625C3.125 21.3875 3.4279 22.1188 3.96707 22.6579C4.50623 23.1971 5.2375 23.5 6 23.5H17.5C18.2625 23.5 18.9938 23.1971 19.5329 22.6579C20.0721 22.1188 20.375 21.3875 20.375 20.625ZM13.9062 4.8125C13.9063 5.38437 14.1334 5.93282 14.5378 6.3372C14.9422 6.74157 15.4906 6.96875 16.0625 6.96875H18.9375V20.625C18.9375 21.0062 18.786 21.3719 18.5165 21.6415C18.2469 21.911 17.8812 22.0625 17.5 22.0625H6C5.61875 22.0625 5.25312 21.911 4.98353 21.6415C4.71395 21.3719 4.5625 21.0062 4.5625 20.625V3.375C4.5625 2.99375 4.71395 2.62812 4.98353 2.35853C5.25312 2.08895 5.61875 1.9375 6 1.9375H13.9062V4.8125Z" fill="#DC3545"/>
</g>
<defs>
<clipPath id="clip0">
<rect width="23" height="23" fill="white" transform="translate(0.25 0.5)"/>
</clipPath>
</defs>
</svg>
