<svg width="31" height="24" viewBox="0 0 31 24" fill="none" xmlns="http://www.w3.org/2000/svg">
<path d="M25.0747 7.82813C23.6838 2.2871 18.0644 -1.0772 12.5234 0.313728C8.19324 1.40074 5.04904 5.14324 4.72508 9.59597C1.65048 10.103 -0.430977 13.0065 0.0760603 16.0811C0.526792 18.8144 2.89524 20.8162 5.66546 20.8052H10.3673V18.9245H5.66546C3.58806 18.9245 1.90397 17.2404 1.90397 15.163C1.90397 13.0856 3.58806 11.4015 5.66546 11.4015C6.18484 11.4015 6.60583 10.9805 6.60583 10.4611C6.60113 5.78693 10.3865 1.99394 15.0607 1.9893C19.1069 1.98524 22.59 4.84573 23.3727 8.81546C23.45 9.21182 23.7716 9.51462 24.172 9.56776C26.7428 9.93385 28.5301 12.3147 28.164 14.8855C27.8353 17.194 25.8643 18.9128 23.5325 18.9245H19.771V20.8052H23.5325C27.168 20.7942 30.1062 17.8382 30.0952 14.2027C30.086 11.1764 28.0146 8.54628 25.0747 7.82813Z" fill="#717276"/>
<path d="M14.4015 11.6743L10.64 15.4357L11.9659 16.7617L14.1288 14.6082V23.6264H16.0095V14.6082L18.163 16.7617L19.4889 15.4357L15.7274 11.6743C15.3606 11.3096 14.7683 11.3096 14.4015 11.6743Z" fill="#717276"/>
</svg>
