<svg width="30" height="30" viewBox="0 0 30 30" fill="none" xmlns="http://www.w3.org/2000/svg">
<path d="M15 0C6.729 0 0 6.72909 0 15.0001C0 23.2711 6.729 30 15 30C23.271 30 30 23.2711 30 15.0001C30 6.72909 23.271 0 15 0ZM15 27.2727C8.23273 27.2727 2.72727 21.7673 2.72727 15.0001C2.72727 8.23291 8.23273 2.72727 15 2.72727C21.7673 2.72727 27.2727 8.23291 27.2727 15.0001C27.2727 21.7673 21.7672 27.2727 15 27.2727Z" fill="#BFBFBF"/>
<path d="M14.9998 6.36362C13.9975 6.36362 13.182 7.17962 13.182 8.18262C13.182 9.18471 13.9975 9.99998 14.9998 9.99998C16.0022 9.99998 16.8176 9.18471 16.8176 8.18262C16.8176 7.17962 16.0022 6.36362 14.9998 6.36362Z" fill="#BFBFBF"/>
<path d="M15 12.7273C14.2469 12.7273 13.6364 13.3378 13.6364 14.0909V22.2727C13.6364 23.0258 14.2469 23.6364 15 23.6364C15.7531 23.6364 16.3636 23.0258 16.3636 22.2727V14.0909C16.3636 13.3378 15.7531 12.7273 15 12.7273Z" fill="#BFBFBF"/>
</svg>
