<svg width="57" height="61" viewBox="0 0 57 61" fill="none" xmlns="http://www.w3.org/2000/svg">
<path d="M56.6749 16.3697L41.2643 0.356559C41.0449 0.128777 40.7422 0 40.4261 0H17.4577C14.8872 0 12.7959 2.09044 12.7959 4.65984V20.9388H3.48773C1.56458 20.9388 0 22.5029 0 24.4256V41.8806C0 43.8032 1.56458 45.3673 3.48773 45.3673H12.7959V55.8381C12.7959 58.403 14.8872 60.4897 17.4577 60.4897H52.3383C54.9087 60.4897 57 58.4041 57 55.8407V17.1764C57 16.8756 56.8834 16.5865 56.6749 16.3697ZM40.7143 3.14039L53.3651 16.2857H40.7143V3.14039ZM3.48773 43.0408C2.84739 43.0408 2.32661 42.5204 2.32661 41.8806V24.4256C2.32661 23.7858 2.84751 23.2653 3.48773 23.2653H34.9001C35.5404 23.2653 36.0612 23.7858 36.0612 24.4256V41.8806C36.0612 42.5204 35.5403 43.0408 34.9001 43.0408H3.48773ZM54.6734 55.8407C54.6734 57.1213 53.6258 58.1633 52.3382 58.1633H17.4577C16.17 58.1633 15.1224 57.1203 15.1224 55.8382V45.3673H34.9001C36.8232 45.3673 38.3878 43.8032 38.3878 41.8806V24.4256C38.3878 22.5029 36.8232 20.9388 34.9001 20.9388H15.1224V4.65984C15.1224 3.37313 16.17 2.32649 17.4577 2.32649H38.3877V17.4489C38.3877 18.0914 38.9086 18.6122 39.551 18.6122H54.6734V55.8407Z" fill="#BFBFBF"/>
<path d="M27.3912 33.0302V34.7138H29.7019V35.9818C29.3974 36.218 29.0327 36.4188 28.6079 36.585C28.183 36.7507 27.7592 36.8336 27.3366 36.8336C26.4823 36.8336 25.7917 36.5373 25.2646 35.9443C24.7375 35.3513 24.474 34.4617 24.474 33.2757C24.474 32.1762 24.7342 31.3467 25.2545 30.7877C25.7748 30.2288 26.4756 29.9493 27.3572 29.9493C27.9388 29.9493 28.4239 30.0915 28.8124 30.3753C29.2008 30.6594 29.4655 31.0468 29.6065 31.5375L31.6103 31.1626C31.4105 30.2448 30.9618 29.5256 30.2641 29.0053C29.5667 28.485 28.5977 28.225 27.3572 28.225C26.4029 28.225 25.6055 28.3907 24.9648 28.7226C24.1242 29.1542 23.4857 29.7744 23.0495 30.5832C22.6134 31.3921 22.3953 32.3168 22.3953 33.3573C22.3953 34.3161 22.5907 35.2034 22.9814 36.0188C23.3722 36.8346 23.9561 37.4616 24.7331 37.9001C25.5101 38.3387 26.4211 38.558 27.4664 38.558C28.2889 38.558 29.101 38.4024 29.9031 38.0909C30.7052 37.7797 31.3173 37.4198 31.7402 37.0109V33.0301H27.3912V33.0302Z" fill="#BFBFBF"/>
<path d="M20.5071 29.5236C20.1208 29.0214 19.6414 28.6954 19.0689 28.5453C18.6963 28.4452 17.8966 28.3956 16.6696 28.3956H13.432V38.3877H15.4496V34.6184H16.7651C17.6785 34.6184 18.376 34.5707 18.8575 34.4754C19.212 34.398 19.5607 34.24 19.9038 34.0016C20.2469 33.7632 20.5297 33.4348 20.7524 33.0166C20.9751 32.5988 21.0864 32.0828 21.0864 31.4694C21.0864 30.6744 20.8933 30.0256 20.5071 29.5236ZM18.7792 32.2739C18.627 32.4963 18.4169 32.6601 18.1487 32.7645C17.8806 32.8688 17.349 32.9212 16.5537 32.9212H15.4496V30.0857H16.4242C17.1513 30.0857 17.6352 30.1084 17.876 30.1538C18.2031 30.2131 18.4736 30.3605 18.6871 30.5969C18.9007 30.8331 19.0075 31.1332 19.0075 31.4967C19.0076 31.792 18.9315 32.0511 18.7792 32.2739Z" fill="#BFBFBF"/>
<path d="M9.27427 28.3956V34.8501C9.27427 35.6589 9.18117 36.1917 8.99486 36.4485C8.80855 36.7053 8.49051 36.8335 8.04061 36.8335C7.59533 36.8335 7.26358 36.6542 7.04549 36.2951C6.90005 36.0587 6.81605 35.6544 6.79325 35.0819L4.8916 35.3C4.89609 36.3679 5.16428 37.1778 5.69593 37.7298C6.22757 38.282 6.98641 38.558 7.97244 38.558C8.81304 38.558 9.49012 38.3817 10.0036 38.0299C10.517 37.6777 10.8715 37.2106 11.0669 36.629C11.2123 36.1839 11.285 35.5475 11.285 34.7208V28.3956H9.27427V28.3956Z" fill="#BFBFBF"/>
</svg>
