<svg width="21" height="23" viewBox="0 0 21 23" fill="none" xmlns="http://www.w3.org/2000/svg">
<path d="M14.6395 9.88281C14.6395 9.38661 14.2373 8.98438 13.7411 8.98438H4.48718C3.99098 8.98438 3.58875 9.38661 3.58875 9.88281C3.58875 10.379 3.99098 10.7812 4.48718 10.7812H13.7411C14.2373 10.7812 14.6395 10.379 14.6395 9.88281Z" fill="#717276"/>
<path d="M4.48718 12.5781C3.99098 12.5781 3.58875 12.9804 3.58875 13.4766C3.58875 13.9728 3.99098 14.375 4.48718 14.375H10.1074C10.6036 14.375 11.0058 13.9728 11.0058 13.4766C11.0058 12.9804 10.6036 12.5781 10.1074 12.5781H4.48718Z" fill="#717276"/>
<path d="M6.59853 21.2031H3.59375C2.60295 21.2031 1.79688 20.397 1.79688 19.4062V3.59375C1.79688 2.60295 2.60295 1.79688 3.59375 1.79688H14.6395C15.6303 1.79688 16.4364 2.60295 16.4364 3.59375V9.11914C16.4364 9.61535 16.8387 10.0176 17.3349 10.0176C17.8311 10.0176 18.2333 9.61535 18.2333 9.11914V3.59375C18.2333 1.61216 16.6211 0 14.6395 0H3.59375C1.61216 0 0 1.61216 0 3.59375V19.4062C0 21.3878 1.61216 23 3.59375 23H6.59853C7.09474 23 7.49697 22.5978 7.49697 22.1016C7.49697 21.6054 7.09474 21.2031 6.59853 21.2031Z" fill="#717276"/>
<path d="M19.8247 13.0081C18.7738 11.9572 17.0639 11.9572 16.0136 13.0074L11.0811 17.9291C10.9763 18.0336 10.899 18.1623 10.856 18.3039L9.78179 21.8404C9.68656 22.154 9.76953 22.4944 9.99836 22.729C10.1698 22.9046 10.4027 23 10.6415 23C10.7214 23 10.8021 22.9893 10.8813 22.9674L14.5076 21.9629C14.6568 21.9215 14.7929 21.8423 14.9025 21.7329L19.8247 16.8199C20.8756 15.769 20.8756 14.0591 19.8247 13.0081ZM13.8003 20.2943L11.9759 20.7996L12.5098 19.0419L15.838 15.7211L17.1089 16.9919L13.8003 20.2943ZM18.5548 15.5488L18.3807 15.7225L17.1101 14.4519L17.2836 14.2788C17.6339 13.9285 18.2038 13.9285 18.5541 14.2788C18.9044 14.6291 18.9044 15.1991 18.5548 15.5488Z" fill="#717276"/>
<path d="M13.7411 5.39062H4.48718C3.99098 5.39062 3.58875 5.79286 3.58875 6.28906C3.58875 6.78527 3.99098 7.1875 4.48718 7.1875H13.7411C14.2373 7.1875 14.6395 6.78527 14.6395 6.28906C14.6395 5.79286 14.2373 5.39062 13.7411 5.39062Z" fill="#717276"/>
</svg>
