<svg width="57" height="61" viewBox="0 0 57 61" fill="none" xmlns="http://www.w3.org/2000/svg">
<path d="M56.6749 16.3697L41.2643 0.356559C41.0449 0.128777 40.7422 0 40.4261 0H17.4577C14.8872 0 12.7959 2.09044 12.7959 4.65984V20.9388H3.48773C1.56458 20.9388 0 22.5029 0 24.4256V41.8806C0 43.8032 1.56458 45.3673 3.48773 45.3673H12.7959V55.8381C12.7959 58.403 14.8872 60.4897 17.4577 60.4897H52.3383C54.9087 60.4897 57 58.4041 57 55.8407V17.1764C57 16.8756 56.8834 16.5865 56.6749 16.3697ZM40.7143 3.14039L53.3651 16.2857H40.7143V3.14039ZM3.48773 43.0408C2.84739 43.0408 2.32661 42.5204 2.32661 41.8806V24.4256C2.32661 23.7858 2.84751 23.2653 3.48773 23.2653H34.9001C35.5404 23.2653 36.0612 23.7858 36.0612 24.4256V41.8806C36.0612 42.5204 35.5403 43.0408 34.9001 43.0408H3.48773ZM54.6734 55.8407C54.6734 57.1213 53.6258 58.1633 52.3382 58.1633H17.4577C16.17 58.1633 15.1224 57.1203 15.1224 55.8382V45.3673H34.9001C36.8232 45.3673 38.3878 43.8032 38.3878 41.8806V24.4256C38.3878 22.5029 36.8232 20.9388 34.9001 20.9388H15.1224V4.65984C15.1224 3.37313 16.17 2.32649 17.4577 2.32649H38.3877V17.4489C38.3877 18.0914 38.9086 18.6122 39.551 18.6122H54.6734V55.8407Z" fill="#BFBFBF"/>
<path d="M13.907 29.5235C13.5208 29.0214 13.0413 28.6953 12.4688 28.5454C12.0962 28.4454 11.2965 28.3954 10.0695 28.3954H6.83191V38.3877H8.84945V34.6184H10.165C11.0784 34.6184 11.7759 34.5707 12.2576 34.4753C12.612 34.398 12.9607 34.2401 13.3038 34.0015C13.6469 33.763 13.9298 33.4346 14.1525 33.0166C14.3752 32.5987 14.4865 32.0828 14.4865 31.4694C14.4863 30.6742 14.2932 30.0256 13.907 29.5235ZM12.1791 32.2738C12.0269 32.4965 11.8168 32.66 11.5486 32.7645C11.2804 32.8691 10.7489 32.9213 9.95363 32.9213H8.84945V30.0858H9.82414C10.5512 30.0858 11.0351 30.1085 11.2759 30.154C11.603 30.2131 11.8735 30.3608 12.087 30.5971C12.3006 30.8333 12.4074 31.1333 12.4074 31.4967C12.4075 31.7921 12.3313 32.0511 12.1791 32.2738Z" fill="#BFBFBF"/>
<path d="M24.1855 31.1253C23.9674 30.4868 23.6492 29.9473 23.2312 29.5065C22.8132 29.0657 22.311 28.759 21.7249 28.5862C21.2887 28.459 20.6548 28.3954 19.8233 28.3954H16.1357V38.3877H19.9323C20.6776 38.3877 21.2728 38.3173 21.718 38.1764C22.3134 37.9855 22.786 37.7197 23.1358 37.3789C23.5993 36.929 23.9559 36.3406 24.2059 35.6136C24.4104 35.0182 24.5126 34.3094 24.5126 33.487C24.5126 32.5509 24.4036 31.7637 24.1855 31.1253ZM22.2224 35.2285C22.0861 35.6762 21.91 35.9977 21.6942 36.193C21.4783 36.3884 21.2068 36.5269 20.8797 36.6087C20.6298 36.6724 20.2231 36.7042 19.6596 36.7042H18.1533V30.0858H19.0598C19.8822 30.0858 20.4344 30.1176 20.7161 30.1813C21.0932 30.2631 21.4045 30.4198 21.6499 30.6516C21.8953 30.8834 22.0861 31.206 22.2224 31.6195C22.3587 32.033 22.4269 32.6259 22.4269 33.3985C22.4269 34.1709 22.3587 34.7809 22.2224 35.2285Z" fill="#BFBFBF"/>
<path d="M33.0872 30.0858V28.3954H26.2371V38.3877H28.2546V34.1414H32.426V32.451H28.2546V30.0858H33.0872Z" fill="#BFBFBF"/>
</svg>
