<svg width="28" height="26" viewBox="0 0 28 26" fill="none" xmlns="http://www.w3.org/2000/svg">
<path d="M26.8334 20.5833H23.7265C23.2214 19.0223 21.6766 17.875 19.8334 17.875C17.9901 17.875 16.4465 19.0223 15.9402 20.5833H1.16665C0.522648 20.5833 0 21.0687 0 21.6667C0 22.2647 0.522648 22.75 1.16665 22.75H15.9401C16.4453 24.3111 17.99 25.4583 19.8333 25.4583C21.6766 25.4583 23.2201 24.3111 23.7264 22.75H26.8333C27.4784 22.75 27.9999 22.2647 27.9999 21.6667C27.9999 21.0687 27.4785 20.5833 26.8334 20.5833ZM19.8334 23.2917C18.8685 23.2917 18.0834 22.5626 18.0834 21.6667C18.0834 20.7707 18.8685 20.0417 19.8334 20.0417C20.7982 20.0417 21.5834 20.7707 21.5834 21.6667C21.5834 22.5626 20.7981 23.2917 19.8334 23.2917Z" fill="#717276"/>
<path d="M26.8334 3.25H23.7265C23.2201 1.68894 21.6766 0.541687 19.8334 0.541687C17.9901 0.541687 16.4465 1.68894 15.9401 3.25H1.16665C0.522648 3.25 0 3.73532 0 4.33332C0 4.93132 0.522648 5.41664 1.16665 5.41664H15.9401C16.4465 6.97775 17.99 8.125 19.8334 8.125C21.6767 8.125 23.2202 6.97775 23.7265 5.41669H26.8334C27.4785 5.41669 28 4.93137 28 4.33337C28 3.73537 27.4785 3.25 26.8334 3.25ZM19.8334 5.95832C18.8685 5.95832 18.0834 5.22925 18.0834 4.33332C18.0834 3.43739 18.8685 2.70832 19.8334 2.70832C20.7982 2.70832 21.5834 3.43739 21.5834 4.33332C21.5834 5.22925 20.7981 5.95832 19.8334 5.95832Z" fill="#717276"/>
<path d="M26.8334 11.9167H12.0599C11.5535 10.3556 10.01 9.20837 8.1667 9.20837C6.32341 9.20837 4.77985 10.3556 4.27355 11.9167H1.16665C0.522648 11.9167 0 12.402 0 13C0 13.598 0.522648 14.0833 1.16665 14.0833H4.2735C4.77985 15.6444 6.32335 16.7916 8.16665 16.7916C10.0099 16.7916 11.5535 15.6444 12.0598 14.0833H26.8333C27.4784 14.0833 27.9999 13.598 27.9999 13C28 12.402 27.4785 11.9167 26.8334 11.9167ZM8.16665 14.625C7.2018 14.625 6.41665 13.8959 6.41665 13C6.41665 12.1041 7.2018 11.375 8.16665 11.375C9.1315 11.375 9.91665 12.1041 9.91665 13C9.91665 13.8959 9.1315 14.625 8.16665 14.625Z" fill="#717276"/>
</svg>
