<svg width="21" height="21" viewBox="0 0 21 21" fill="none" xmlns="http://www.w3.org/2000/svg">
<path d="M7.17172 5.95063L9.41378 3.70857V15.569C9.41378 15.8571 9.52822 16.1333 9.73193 16.337C9.93563 16.5407 10.2119 16.6552 10.5 16.6552C10.7881 16.6552 11.0643 16.5407 11.2681 16.337C11.4718 16.1333 11.5862 15.8571 11.5862 15.569V3.70857L13.8283 5.95063C13.929 6.05195 14.0488 6.13238 14.1807 6.18733C14.3126 6.24228 14.454 6.27067 14.5969 6.27086C14.7398 6.27106 14.8813 6.24306 15.0134 6.18847C15.1454 6.13387 15.2654 6.05376 15.3665 5.95272C15.4675 5.85168 15.5476 5.7317 15.6022 5.59965C15.6568 5.4676 15.6848 5.32607 15.6846 5.18318C15.6844 5.04029 15.656 4.89884 15.6011 4.76694C15.5461 4.63504 15.4657 4.51528 15.3644 4.41451L11.2681 0.318162C11.1672 0.217292 11.0475 0.137278 10.9157 0.0826878C10.7839 0.0280974 10.6426 0 10.5 0C10.3573 0 10.2161 0.0280974 10.0843 0.0826878C9.95252 0.137278 9.83277 0.217292 9.73191 0.318162L5.6356 4.41451C5.53429 4.51528 5.45385 4.63504 5.3989 4.76694C5.34395 4.89884 5.31556 5.04029 5.31537 5.18318C5.31518 5.32607 5.34318 5.4676 5.39777 5.59965C5.45236 5.7317 5.53247 5.85168 5.63351 5.95272C5.73455 6.05376 5.85453 6.13387 5.98658 6.18847C6.11863 6.24306 6.26016 6.27106 6.40305 6.27086C6.54594 6.27067 6.68739 6.24228 6.81929 6.18733C6.95119 6.13238 7.07096 6.05195 7.17172 5.95063V5.95063Z" fill="#BFBFBF"/>
<path d="M19.9138 9.41382C19.6257 9.41382 19.3494 9.52826 19.1457 9.73196C18.942 9.93566 18.8276 10.2119 18.8276 10.5V18.8276H2.17241V10.5C2.17241 10.2119 2.05797 9.93566 1.85427 9.73196C1.65056 9.52826 1.37428 9.41382 1.0862 9.41382C0.798125 9.41382 0.521845 9.52826 0.318142 9.73196C0.114439 9.93566 0 10.2119 0 10.5V19.1897C0 19.6698 0.190732 20.1303 0.530237 20.4698C0.869742 20.8093 1.33021 21 1.81034 21H19.1896C19.6698 21 20.1302 20.8093 20.4697 20.4698C20.8092 20.1303 21 19.6698 21 19.1897V10.5C21 10.2119 20.8855 9.93566 20.6818 9.73196C20.4781 9.52826 20.2018 9.41382 19.9138 9.41382Z" fill="#BFBFBF"/>
</svg>
