<svg width="30" height="32" viewBox="0 0 30 32" fill="none" xmlns="http://www.w3.org/2000/svg">
<path d="M27.9956 5.14079H20.5012V3.71623C20.5012 1.6671 18.8341 0 16.785 0H12.4494C10.4003 0 8.73315 1.6671 8.73315 3.71623V5.14079H1.23874C0.554586 5.14079 0 5.69538 0 6.37954C0 7.06369 0.554586 7.61828 1.23874 7.61828H2.52159L4.03125 27.1896C4.03168 27.1953 4.03218 27.2011 4.03267 27.2069C4.14515 28.4409 4.71113 29.5807 5.62632 30.4162C6.5415 31.2517 7.72797 31.7119 8.96715 31.7119H20.2672C22.848 31.7119 24.9693 29.7898 25.2017 27.241C25.2638 26.5597 24.7619 25.957 24.0806 25.8949C23.3986 25.8328 22.7966 26.3347 22.7344 27.016C22.6192 28.2807 21.5585 29.2344 20.2672 29.2344H8.96715C7.68028 29.2344 6.62128 28.27 6.50062 26.9896L5.00645 7.61828H24.2279L23.1699 21.335C23.1173 22.0171 23.6276 22.6127 24.3097 22.6654C24.3422 22.6679 24.3743 22.6691 24.4064 22.6691C25.0472 22.6691 25.59 22.1752 25.6401 21.5255L26.7128 7.61828H27.9956C28.6798 7.61828 29.2344 7.06369 29.2344 6.37954C29.2344 5.69538 28.6798 5.14079 27.9956 5.14079ZM18.0237 5.14079H11.2106V3.71623C11.2106 3.03319 11.7663 2.47749 12.4494 2.47749H16.785C17.468 2.47749 18.0237 3.03319 18.0237 3.71623V5.14079Z" fill="#BFBFBF"/>
<path d="M8.98878 10.0969C8.3053 10.1268 7.77543 10.705 7.80528 11.3886L8.42465 25.5681C8.4537 26.2331 9.00203 26.7528 9.66129 26.7528C9.6795 26.7528 9.6979 26.7524 9.71629 26.7516C10.3998 26.7217 10.9296 26.1435 10.8998 25.4599L10.2804 11.2804C10.2506 10.597 9.6712 10.0662 8.98878 10.0969Z" fill="#BFBFBF"/>
<path d="M18.9539 11.2804L18.3346 25.46C18.3047 26.1434 18.8346 26.7217 19.5181 26.7516C19.5365 26.7524 19.5548 26.7528 19.5731 26.7528C20.2323 26.7528 20.7807 26.2332 20.8097 25.5681L21.4291 11.3886C21.4589 10.7051 20.9291 10.1268 20.2456 10.097C19.5632 10.0665 18.9838 10.5969 18.9539 11.2804Z" fill="#BFBFBF"/>
<path d="M13.3784 11.3345V25.514C13.3784 26.1981 13.933 26.7527 14.6172 26.7527C15.3013 26.7527 15.8559 26.1981 15.8559 25.514V11.3345C15.8559 10.6504 15.3013 10.0958 14.6172 10.0958C13.933 10.0958 13.3784 10.6504 13.3784 11.3345Z" fill="#BFBFBF"/>
</svg>
