<svg width="21" height="23" viewBox="0 0 21 23" fill="none" xmlns="http://www.w3.org/2000/svg">
<path d="M10.1074 8.08594C9.73529 8.08594 9.43359 8.38763 9.43359 8.75977V18.2832C9.43359 18.6553 9.73529 18.957 10.1074 18.957C10.4796 18.957 10.7812 18.6553 10.7812 18.2832V8.75977C10.7812 8.38763 10.4796 8.08594 10.1074 8.08594Z" fill="#717276"/>
<path d="M18.1934 2.69531H14.1504V2.02148C14.1504 0.906838 13.2436 0 12.1289 0H8.08594C6.97129 0 6.06445 0.906838 6.06445 2.02148V2.69531H2.02148C0.906838 2.69531 0 3.60215 0 4.7168V6.06445C0 6.43659 0.301695 6.73828 0.673828 6.73828H1.4008L2.58615 21.1557C2.58629 21.1577 2.58647 21.1596 2.58665 21.1615C2.68197 22.2096 3.54748 23 4.59982 23H15.615C16.6674 23 17.5328 22.2096 17.6282 21.1615C17.6283 21.1596 17.6285 21.1577 17.6286 21.1557L18.814 6.73828H19.541C19.9131 6.73828 20.2148 6.43659 20.2148 6.06445V4.7168C20.2148 3.60215 19.308 2.69531 18.1934 2.69531ZM7.41211 2.02148C7.41211 1.64994 7.71439 1.34766 8.08594 1.34766H12.1289C12.5005 1.34766 12.8027 1.64994 12.8027 2.02148V2.69531H7.41211V2.02148ZM16.2858 21.0418C16.2531 21.39 15.965 21.6523 15.615 21.6523H4.59982C4.24979 21.6523 3.96175 21.39 3.92896 21.0418L2.75299 6.73828H17.4619L16.2858 21.0418ZM18.8672 5.39062H18.1934H2.02148H1.34766V4.7168C1.34766 4.34525 1.64994 4.04297 2.02148 4.04297H6.73828H13.4766H18.1934C18.5649 4.04297 18.8672 4.34525 18.8672 4.7168V5.39062Z" fill="#717276"/>
<path d="M14.1504 8.08594C13.7783 8.08594 13.4766 8.38763 13.4766 8.75977V18.2832C13.4766 18.6553 13.7783 18.957 14.1504 18.957C14.5225 18.957 14.8242 18.6553 14.8242 18.2832V8.75977C14.8242 8.38763 14.5225 8.08594 14.1504 8.08594Z" fill="#717276"/>
<path d="M6.06445 8.08594C5.69232 8.08594 5.39062 8.38763 5.39062 8.75977V18.2832C5.39062 18.6553 5.69232 18.957 6.06445 18.957C6.43659 18.957 6.73828 18.6553 6.73828 18.2832V8.75977C6.73828 8.38763 6.43659 8.08594 6.06445 8.08594Z" fill="#717276"/>
</svg>
