<svg width="57" height="61" viewBox="0 0 57 61" fill="none" xmlns="http://www.w3.org/2000/svg">
<path d="M56.6748 16.3697L41.2638 0.356559C41.0445 0.128777 40.742 0 40.4257 0H17.4575C14.887 0 12.7959 2.09044 12.7959 4.65985V20.9388H3.4875C1.56458 20.9388 0 22.5029 0 24.4256V41.8807C0 43.8033 1.56458 45.3674 3.4875 45.3674H12.7959V55.8382C12.7959 58.4031 14.8869 60.4899 17.4575 60.4899H52.3384C54.9088 60.4899 57 58.4043 57 55.8408V17.1764C57 16.8756 56.8835 16.5865 56.6748 16.3697ZM40.7143 3.14075L53.3651 16.2858H40.7143V3.14075ZM3.4875 43.0409C2.8474 43.0409 2.3265 42.5205 2.3265 41.8807V24.4256C2.3265 23.7859 2.8474 23.2653 3.4875 23.2653H34.8999C35.5404 23.2653 36.0612 23.7859 36.0612 24.4256V41.8807C36.0612 42.5205 35.5403 43.0409 34.8999 43.0409H3.4875ZM54.6734 55.8408C54.6734 57.1214 53.626 58.1634 52.3384 58.1634H17.4575C16.1698 58.1634 15.1225 57.1204 15.1225 55.8383V45.3674H34.8999C36.8232 45.3674 38.3878 43.8033 38.3878 41.8807V24.4256C38.3878 22.5029 36.8232 20.9388 34.8999 20.9388H15.1223V4.65985C15.1223 3.37314 16.1697 2.3265 17.4574 2.3265H38.3877V17.449C38.3877 18.0914 38.9086 18.6122 39.5509 18.6122H54.6734V55.8408Z" fill="#BFBFBF"/>
<path d="M25.1169 28.3956V30.0858H28.0817V38.3878H30.0994V30.0858H33.0576V28.3956H25.1169Z" fill="#BFBFBF"/>
<path d="M7.27924 28.3956V30.0858H10.2445V38.3878H12.262V30.0858H15.2201V28.3956H7.27924Z" fill="#BFBFBF"/>
<path d="M21.3817 33.2485L24.4899 28.3956H22.152L20.189 31.606L18.1849 28.3956H15.8268L18.9211 33.1735L15.5062 38.3878H17.9262L20.148 34.9319L22.3631 38.3878H24.7967L21.3817 33.2485Z" fill="#BFBFBF"/>
</svg>
