<svg width="30" height="30" viewBox="0 0 30 30" fill="none" xmlns="http://www.w3.org/2000/svg">
<path d="M21.5587 29.9923H3.43697C1.54102 29.9923 0 28.4513 0 26.5553V8.43356C0 6.5376 1.54102 4.99658 3.43697 4.99658H14.06C14.5774 4.99658 14.9974 5.41651 14.9974 5.93392C14.9974 6.45133 14.5774 6.87125 14.06 6.87125H3.43697C2.57584 6.87125 1.87467 7.57242 1.87467 8.43356V26.5553C1.87467 27.4164 2.57584 28.1176 3.43697 28.1176H21.5587C22.4199 28.1176 23.121 27.4164 23.121 26.5553V15.9322C23.121 15.4148 23.541 14.9949 24.0584 14.9949C24.5758 14.9949 24.9957 15.4137 24.9957 15.9322V26.5553C24.9957 28.4513 23.4547 29.9923 21.5587 29.9923V29.9923Z" fill="#E0E0E0"/>
<path d="M10.9631 19.9665C10.7169 19.9665 10.4768 19.869 10.3006 19.6917C10.0782 19.4704 9.98322 19.1516 10.0445 18.8454L10.9281 14.4262C10.9643 14.2439 11.0542 14.0775 11.1842 13.9475L24.1284 1.0049C25.468 -0.334967 27.6477 -0.334967 28.9888 1.0049C29.6373 1.65344 29.9947 2.51594 29.9947 3.43451C29.9947 4.35309 29.6373 5.21536 28.9874 5.86413L16.0448 18.8081C15.9148 18.9392 15.7473 19.028 15.566 19.0642L11.148 19.9477C11.0867 19.9603 11.0242 19.9665 10.9631 19.9665V19.9665ZM15.3823 18.1456H15.3949H15.3823ZM12.7103 15.0725L12.159 17.8344L14.9198 17.282L27.6626 4.53936C27.9576 4.24301 28.1201 3.85192 28.1201 3.43451C28.1201 3.01711 27.9576 2.62579 27.6626 2.32967C27.0553 1.72095 26.0642 1.72095 25.4532 2.32967L12.7103 15.0725Z" fill="#E0E0E0"/>
<path d="M26.5578 7.90744C26.318 7.90744 26.0779 7.81613 25.8955 7.63237L22.3611 4.09677C21.9949 3.73062 21.9949 3.137 22.3611 2.77086C22.7272 2.40471 23.3208 2.40471 23.6872 2.77086L27.2214 6.30646C27.5876 6.67261 27.5876 7.26622 27.2214 7.63237C27.0377 7.81499 26.7978 7.90744 26.5578 7.90744V7.90744Z" fill="#E0E0E0"/>
</svg>
