<svg width="54" height="54" viewBox="0 0 54 54" fill="none" xmlns="http://www.w3.org/2000/svg">
<path d="M35.7487 25.6584L23.0925 17.7483C22.6047 17.4435 21.99 17.4273 21.487 17.7061C20.984 17.9849 20.6719 18.5147 20.6719 19.0898V34.9102C20.6719 35.4853 20.984 36.0151 21.487 36.2939C21.726 36.4264 21.9901 36.4922 22.2539 36.4922C22.5453 36.4922 22.8363 36.4117 23.0924 36.2517L35.7486 28.3416C36.2112 28.0525 36.4922 27.5455 36.4922 27C36.4922 26.4545 36.2113 25.9475 35.7487 25.6584ZM23.836 32.0558V21.9441L31.9253 27L23.836 32.0558Z" fill="black"/>
<path d="M46.0898 6.43359H7.91016C3.5485 6.43359 0 9.98209 0 14.3438V39.6562C0 44.0179 3.5485 47.5664 7.91016 47.5664H46.0898C50.4515 47.5664 54 44.0179 54 39.6562V14.3438C54 9.98209 50.4515 6.43359 46.0898 6.43359ZM50.8359 39.6562C50.8359 42.2732 48.7068 44.4023 46.0898 44.4023H7.91016C5.29316 44.4023 3.16406 42.2732 3.16406 39.6562V14.3438C3.16406 11.7268 5.29316 9.59766 7.91016 9.59766H46.0898C48.7068 9.59766 50.8359 11.7268 50.8359 14.3438V39.6562Z" fill="black"/>
</svg>
