<svg width="44" height="44" viewBox="0 0 44 44" fill="none" xmlns="http://www.w3.org/2000/svg">
<g clip-path="url(#clip0)">
<path d="M21.9998 22C21.8917 22 21.7853 21.9817 21.6827 21.9432L4.266 15.5265C3.90484 15.3945 3.6665 15.0498 3.6665 14.6667C3.6665 14.2835 3.90667 13.9388 4.26784 13.8068L16.1845 9.42516C16.6575 9.25283 17.1873 9.49483 17.3615 9.96966C17.5357 10.4445 17.2918 10.9707 16.817 11.1467L7.23784 14.6667L21.9998 20.1062L36.7618 14.6667L27.1827 11.1448C26.7078 10.9707 26.464 10.4427 26.6382 9.96783C26.8123 9.49299 27.3403 9.25099 27.8152 9.42333L39.7318 13.805C40.093 13.9388 40.3332 14.2835 40.3332 14.6667C40.3332 15.0498 40.0948 15.3945 39.7337 15.5265L22.317 21.9432C22.2143 21.9817 22.108 22 21.9998 22Z" fill="black"/>
<path d="M21.9997 44C21.8915 44 21.7852 43.9817 21.6844 43.9432L11.9494 40.3682C11.4745 40.194 11.2307 39.6678 11.4049 39.1912C11.579 38.7163 12.107 38.4725 12.5819 38.6467L21.9997 42.1062L31.4194 38.6467C31.8942 38.4707 32.4204 38.7163 32.5964 39.1912C32.7706 39.666 32.5267 40.1922 32.0519 40.3682L22.3169 43.9432C22.2142 43.9817 22.1079 44 21.9997 44Z" fill="black"/>
<path d="M4.58317 32.56C4.07717 32.56 3.6665 32.1493 3.6665 31.6433V14.6667C3.6665 14.1607 4.07717 13.75 4.58317 13.75C5.08917 13.75 5.49984 14.1607 5.49984 14.6667V31.6433C5.49984 32.1493 5.08917 32.56 4.58317 32.56Z" fill="black"/>
<path d="M39.4167 32.56C38.9107 32.56 38.5 32.1493 38.5 31.6433V14.6667C38.5 14.1607 38.9107 13.75 39.4167 13.75C39.9227 13.75 40.3333 14.1607 40.3333 14.6667V31.6433C40.3333 32.1493 39.9227 32.56 39.4167 32.56Z" fill="black"/>
<path d="M22.0002 14.6667C21.4942 14.6667 21.0835 14.256 21.0835 13.75V6.41667C21.0835 5.91067 21.4942 5.5 22.0002 5.5C22.5062 5.5 22.9168 5.91067 22.9168 6.41667V13.75C22.9168 14.256 22.5062 14.6667 22.0002 14.6667Z" fill="black"/>
<path d="M38.39 39.3067C38.1553 39.3067 37.9206 39.2168 37.741 39.039L33.2676 34.5657C32.9101 34.2082 32.9101 33.627 33.2676 33.2695C33.6251 32.912 34.2063 32.912 34.5638 33.2695L39.0371 37.7428C39.3946 38.1003 39.3946 38.6815 39.0371 39.039C38.8593 39.2168 38.6246 39.3067 38.39 39.3067Z" fill="black"/>
<path d="M5.61 39.3067C5.37533 39.3067 5.14066 39.2168 4.961 39.039C4.6035 38.6815 4.6035 38.1003 4.961 37.7428L9.43433 33.2695C9.79183 32.912 10.373 32.912 10.7305 33.2695C11.088 33.627 11.088 34.2082 10.7305 34.5657L6.25716 39.039C6.07933 39.2168 5.84466 39.3067 5.61 39.3067Z" fill="black"/>
<path d="M22.0002 44C21.4942 44 21.0835 43.5893 21.0835 43.0833V21.0833C21.0835 20.5773 21.4942 20.1667 22.0002 20.1667C22.5062 20.1667 22.9168 20.5773 22.9168 21.0833V43.0833C22.9168 43.5893 22.5062 44 22.0002 44Z" fill="black"/>
<path d="M22.0002 7.33333C19.978 7.33333 18.3335 5.68883 18.3335 3.66667C18.3335 1.6445 19.978 0 22.0002 0C24.0223 0 25.6668 1.6445 25.6668 3.66667C25.6668 5.68883 24.0223 7.33333 22.0002 7.33333ZM22.0002 1.83333C20.99 1.83333 20.1668 2.6565 20.1668 3.66667C20.1668 4.67683 20.99 5.5 22.0002 5.5C23.0103 5.5 23.8335 4.67683 23.8335 3.66667C23.8335 2.6565 23.0103 1.83333 22.0002 1.83333Z" fill="black"/>
<path d="M40.3332 44C38.311 44 36.6665 42.3555 36.6665 40.3333C36.6665 38.3112 38.311 36.6667 40.3332 36.6667C42.3553 36.6667 43.9998 38.3112 43.9998 40.3333C43.9998 42.3555 42.3553 44 40.3332 44ZM40.3332 38.5C39.323 38.5 38.4998 39.3232 38.4998 40.3333C38.4998 41.3435 39.323 42.1667 40.3332 42.1667C41.3433 42.1667 42.1665 41.3435 42.1665 40.3333C42.1665 39.3232 41.3433 38.5 40.3332 38.5Z" fill="black"/>
<path d="M3.66667 44C1.6445 44 0 42.3555 0 40.3333C0 38.3112 1.6445 36.6667 3.66667 36.6667C5.68883 36.6667 7.33333 38.3112 7.33333 40.3333C7.33333 42.3555 5.68883 44 3.66667 44ZM3.66667 38.5C2.6565 38.5 1.83333 39.3232 1.83333 40.3333C1.83333 41.3435 2.6565 42.1667 3.66667 42.1667C4.67683 42.1667 5.5 41.3435 5.5 40.3333C5.5 39.3232 4.67683 38.5 3.66667 38.5Z" fill="black"/>
</g>
<defs>
<clipPath id="clip0">
<rect width="44" height="44" fill="white"/>
</clipPath>
</defs>
</svg>
