<svg width="43" height="45" viewBox="0 0 43 45" fill="none" xmlns="http://www.w3.org/2000/svg">
<path d="M41.7402 10.6348H32.166V2.8125C32.166 2.08441 31.602 1.49414 30.9062 1.49414H1.25977C0.564039 1.49414 0 2.08441 0 2.8125V36.9141C0 40.5488 2.82565 43.5059 6.29883 43.5059H36.7012C40.1743 43.5059 43 40.5488 43 36.9141V11.9531C43 11.225 42.436 10.6348 41.7402 10.6348ZM6.29883 40.8691C4.21492 40.8691 2.51953 39.0949 2.51953 36.9141V4.13086H29.6465C29.6465 38.9765 29.6306 37.0392 29.6754 37.5361C29.7849 38.7583 30.2204 39.9108 30.9092 40.8691H6.29883ZM40.4805 36.9141C40.4805 39.0949 38.7851 40.8691 36.7012 40.8691C36.4185 40.8691 36.2229 40.8691 35.9453 40.8691C33.8614 40.8691 32.166 39.0949 32.166 36.9141V13.2715H40.4805V36.9141Z" fill="black"/>
<path d="M25.5312 7.82227H6.71875C6.02302 7.82227 5.45898 8.41254 5.45898 9.14062C5.45898 9.86871 6.02302 10.459 6.71875 10.459H25.5312C26.227 10.459 26.791 9.86871 26.791 9.14062C26.791 8.41254 26.227 7.82227 25.5312 7.82227Z" fill="black"/>
<path d="M25.5312 13.4473H6.71875C6.02302 13.4473 5.45898 14.0375 5.45898 14.7656C5.45898 15.4937 6.02302 16.084 6.71875 16.084H25.5312C26.227 16.084 26.791 15.4937 26.791 14.7656C26.791 14.0375 26.227 13.4473 25.5312 13.4473Z" fill="black"/>
<path d="M25.5312 34.541H6.71875C6.02302 34.541 5.45898 35.1313 5.45898 35.8594C5.45898 36.5875 6.02302 37.1777 6.71875 37.1777H25.5312C26.227 37.1777 26.791 36.5875 26.791 35.8594C26.791 35.1313 26.227 34.541 25.5312 34.541Z" fill="black"/>
<path d="M25.5312 19.0723H16.125C15.4293 19.0723 14.8652 19.6625 14.8652 20.3906V30.2344C14.8652 30.9625 15.4293 31.5527 16.125 31.5527H25.5312C26.227 31.5527 26.791 30.9625 26.791 30.2344V20.3906C26.791 19.6625 26.227 19.0723 25.5312 19.0723ZM24.2715 28.916H17.3848V21.709H24.2715V28.916Z" fill="black"/>
<path d="M6.71875 23.8184H10.75C11.4457 23.8184 12.0098 23.2281 12.0098 22.5C12.0098 21.7719 11.4457 21.1816 10.75 21.1816H6.71875C6.02302 21.1816 5.45898 21.7719 5.45898 22.5C5.45898 23.2281 6.02302 23.8184 6.71875 23.8184Z" fill="black"/>
<path d="M6.71875 29.4434H10.75C11.4457 29.4434 12.0098 28.8531 12.0098 28.125C12.0098 27.3969 11.4457 26.8066 10.75 26.8066H6.71875C6.02302 26.8066 5.45898 27.3969 5.45898 28.125C5.45898 28.8531 6.02302 29.4434 6.71875 29.4434Z" fill="black"/>
</svg>
